<svg id="_004-instagram" data-name="004-instagram" xmlns="http://www.w3.org/2000/svg" viewBox="0 0 15 15">
  <defs>
    <style>
      .cls-1 {
        fill: #999;
      }
    </style>
  </defs>
  <g id="Group_8" data-name="Group 8">
    <g id="Group_7" data-name="Group 7">
      <path id="Path_4" data-name="Path 4" class="cls-1" d="M10.643,0H4.357A4.362,4.362,0,0,0,0,4.357v6.285A4.362,4.362,0,0,0,4.357,15h6.285a4.311,4.311,0,0,0,1.971-.47,4.4,4.4,0,0,0,1.5-1.256.586.586,0,1,0-.934-.708,3.164,3.164,0,0,1-2.54,1.262H4.357a3.189,3.189,0,0,1-3.185-3.185V4.357A3.189,3.189,0,0,1,4.357,1.172h6.285a3.189,3.189,0,0,1,3.185,3.185v5.692a.586.586,0,0,0,1.172,0V4.357A4.362,4.362,0,0,0,10.643,0Z"/>
    </g>
  </g>
  <g id="Group_10" data-name="Group 10" transform="translate(3.457 3.457)">
    <g id="Group_9" data-name="Group 9">
      <path id="Path_5" data-name="Path 5" class="cls-1" d="M122.043,118a4.043,4.043,0,1,0,4.043,4.043A4.048,4.048,0,0,0,122.043,118Zm0,6.914a2.871,2.871,0,1,1,2.871-2.871A2.874,2.874,0,0,1,122.043,124.914Z" transform="translate(-118 -118)"/>
    </g>
  </g>
  <g id="Group_12" data-name="Group 12" transform="translate(11.016 2.813)">
    <g id="Group_11" data-name="Group 11">
      <circle id="Ellipse_3" data-name="Ellipse 3" class="cls-1" cx="0.586" cy="0.586" r="0.586"/>
    </g>
  </g>
</svg>
