<svg xmlns="http://www.w3.org/2000/svg" viewBox="0 0 15.962 13">
  <defs>
    <style>
      .cls-1 {
        fill: #999;
      }
    </style>
  </defs>
  <g id="_002-twitter" data-name="002-twitter" transform="translate(0.002 -47.501)">
    <g id="Group_6" data-name="Group 6" transform="translate(-0.002 47.501)">
      <path id="Path_3" data-name="Path 3" class="cls-1" d="M14.066,49.589l-.008-.031a3.378,3.378,0,0,0,1.465-1.839,6.812,6.812,0,0,1-2.12.811A3.147,3.147,0,0,0,11.065,47.5a3.3,3.3,0,0,0-3.3,3.273,6.122,6.122,0,0,0,.053.781,9.331,9.331,0,0,1-4.454-1.54,8.607,8.607,0,0,1-1.843-1.592A.624.624,0,0,0,.41,48.9a9.754,9.754,0,0,0,1.461,3.656,1.724,1.724,0,0,1-.474-.146.612.612,0,0,0-.7.05.627.627,0,0,0-.194.692A4.672,4.672,0,0,0,3.16,55.728a1.963,1.963,0,0,1-.56.1h0a.617.617,0,0,0-.59.373.625.625,0,0,0,.135.692,4.922,4.922,0,0,0,2.157,1.1,4.409,4.409,0,0,1-1.81.511A6.154,6.154,0,0,1,.77,58.4.623.623,0,0,0,.381,59.58a12.912,12.912,0,0,0,4.356.921,12.166,12.166,0,0,0,3.585-.436A7.506,7.506,0,0,0,11.571,58.1a.624.624,0,1,0-.886-.877C9.018,58.909,7.1,59.254,4.737,59.254l-.166,0a4.661,4.661,0,0,0,1.677-1.286.624.624,0,0,0-.464-1.018,5.176,5.176,0,0,1-1.633-.3,2.914,2.914,0,0,0,.9-.79.624.624,0,0,0-.388-.988,4.306,4.306,0,0,1-2.2-1.028,4.188,4.188,0,0,0,.834-.123.624.624,0,0,0,.281-1.054,6.156,6.156,0,0,1-1.27-1.856q.154.11.321.221a10.72,10.72,0,0,0,5.941,1.8.624.624,0,0,0,.6-.787,5.582,5.582,0,0,1-.165-1.271,1.994,1.994,0,0,1,.6-1.428,2.06,2.06,0,0,1,1.454-.6,1.9,1.9,0,0,1,1.429.635,2.476,2.476,0,0,1,.6,1.419v.378a.363.363,0,0,0,0,.051.632.632,0,0,0,0,.074,8.568,8.568,0,0,1-.78,3.75.624.624,0,1,0,1.123.542,9.8,9.8,0,0,0,.9-4.293.63.63,0,0,0,0-.071.409.409,0,0,0,0-.054v-.436A6.777,6.777,0,0,0,15.96,49,6.9,6.9,0,0,1,14.066,49.589Z" transform="translate(0.002 -47.501)"/>
    </g>
  </g>
</svg>
